 0
SECTION
 2
HEADER
 0
ENDSEC
 0
SECTION
 2
TABLES
 0
ENDSEC
 0
SECTION
 2
BLOCKS
 0
BLOCK
 70
0
 2
CR_SOD-123FL_SME-L
 10
0
 20
0
 30
0
 999
##### LINE 3 ####
 0
LINE
 5
36
 8
1
 6
CONTINUOUS
 62
1
 10
-0.0570000027073547
 20
-0.0235000011161901
 11
-0.0570000027073547
 21
0.0235000011161901
 999
##### LINE 4 ####
 0
LINE
 5
36
 8
1
 6
CONTINUOUS
 62
1
 10
-0.0570000027073547
 20
0.0235000011161901
 11
-0.0760000036098063
 21
0.0235000011161901
 999
##### LINE 5 ####
 0
LINE
 5
36
 8
1
 6
CONTINUOUS
 62
1
 10
-0.0760000036098063
 20
0.0235000011161901
 11
-0.0760000036098063
 21
-0.0235000011161901
 999
##### LINE 6 ####
 0
LINE
 5
36
 8
1
 6
CONTINUOUS
 62
1
 10
-0.0760000036098063
 20
-0.0235000011161901
 11
-0.0570000027073547
 21
-0.0235000011161901
 999
##### LINE 8 ####
 0
LINE
 5
36
 8
1
 6
CONTINUOUS
 62
1
 10
0.0570000027073547
 20
0.0235000011161902
 11
0.0570000027073547
 21
-0.02350000111619
 999
##### LINE 9 ####
 0
LINE
 5
36
 8
1
 6
CONTINUOUS
 62
1
 10
0.0570000027073547
 20
-0.02350000111619
 11
0.0760000036098063
 21
-0.02350000111619
 999
##### LINE 10 ####
 0
LINE
 5
36
 8
1
 6
CONTINUOUS
 62
1
 10
0.0760000036098063
 20
-0.02350000111619
 11
0.0760000036098063
 21
0.0235000011161902
 999
##### LINE 11 ####
 0
LINE
 5
36
 8
1
 6
CONTINUOUS
 62
1
 10
0.0760000036098063
 20
0.0235000011161902
 11
0.0570000027073547
 21
0.0235000011161902
 999
##### LINE 17 ####
 0
SOLID
 62
8
 5
36
 8
8
 10
-0.0890000042272732
 20
-0.0275000013061799
 11
-0.0830000039422885
 21
-0.0275000013061799
 12
-0.0890000042272732
 22
0.0275000013061799
 13
-0.0830000039422885
 23
0.0275000013061799
 999
##### LINE 18 ####
 0
SOLID
 62
8
 5
36
 8
8
 10
-0.0860000040847808
 20
0.0305000014486723
 11
-0.0860000040847808
 21
0.0245000011636876
 12
-0.0610000028973445
 22
0.0305000014486723
 13
-0.0610000028973445
 23
0.0245000011636876
 999
##### LINE 19 ####
 0
SOLID
 62
8
 5
36
 8
8
 10
0.0610000028973445
 20
0.0305000014486723
 11
0.0610000028973445
 21
0.0245000011636876
 12
0.0860000040847808
 22
0.0305000014486723
 13
0.0860000040847808
 23
0.0245000011636876
 999
##### LINE 20 ####
 0
SOLID
 62
8
 5
36
 8
8
 10
0.0890000042272732
 20
0.0275000013061799
 11
0.0830000039422885
 21
0.0275000013061799
 12
0.0890000042272732
 22
-0.0275000013061799
 13
0.0830000039422885
 23
-0.0275000013061799
 999
##### LINE 21 ####
 0
SOLID
 62
8
 5
36
 8
8
 10
0.0860000040847808
 20
-0.0305000014486723
 11
0.0860000040847808
 21
-0.0245000011636876
 12
0.0610000028973445
 22
-0.0305000014486723
 13
0.0610000028973445
 23
-0.0245000011636876
 999
##### LINE 22 ####
 0
SOLID
 62
8
 5
36
 8
8
 10
-0.0610000028973445
 20
-0.0305000014486723
 11
-0.0610000028973445
 21
-0.0245000011636876
 12
-0.0860000040847808
 22
-0.0305000014486723
 13
-0.0860000040847808
 23
-0.0245000011636876
999
##### Poly 23 ####
0
POLYLINE
5
36
70
1
8
8
6
CONTINUOUS
 62
8
66
1
10
0
20
0
0
VERTEX
8
8
6
CONTINUOUS
 10
-0.0860000040847808
 20
-0.0275000013061799
0
VERTEX
8
8
6
CONTINUOUS
 10
-0.0860000040847808
 20
0.0275000013061799
0
VERTEX
8
8
6
CONTINUOUS
 10
-0.0610000028973445
 20
0.0275000013061799
0
VERTEX
8
8
6
CONTINUOUS
 10
-0.0610000028973445
 20
0.0425000020186417
0
VERTEX
8
8
6
CONTINUOUS
 10
0.0610000028973445
 20
0.0425000020186417
0
VERTEX
8
8
6
CONTINUOUS
 10
0.0610000028973445
 20
0.0275000013061799
0
VERTEX
8
8
6
CONTINUOUS
 10
0.0860000040847808
 20
0.0275000013061799
0
VERTEX
8
8
6
CONTINUOUS
 10
0.0860000040847808
 20
-0.0275000013061799
0
VERTEX
8
8
6
CONTINUOUS
 10
0.0610000028973445
 20
-0.0275000013061799
0
VERTEX
8
8
6
CONTINUOUS
 10
0.0610000028973445
 20
-0.0425000020186417
0
VERTEX
8
8
6
CONTINUOUS
 10
-0.0610000028973445
 20
-0.0425000020186417
0
VERTEX
8
8
6
CONTINUOUS
 10
-0.0610000028973445
 20
-0.0275000013061799
0
SEQEND
 999
##### LINE 29 ####
 0
SOLID
 62
8
 5
36
 8
8
 10
-0.0640000030398369
 20
-0.0425000020186417
 11
-0.0580000027548522
 21
-0.0425000020186417
 12
-0.0640000030398369
 22
-0.0275000013061799
 13
-0.0580000027548522
 23
-0.0275000013061799
 999
##### LINE 30 ####
 0
SOLID
 62
8
 5
36
 8
8
 10
-0.0640000030398369
 20
0.0275000013061799
 11
-0.0580000027548522
 21
0.0275000013061799
 12
-0.0640000030398369
 22
0.0425000020186417
 13
-0.0580000027548522
 23
0.0425000020186417
 999
##### LINE 31 ####
 0
SOLID
 62
8
 5
36
 8
8
 10
-0.0610000028973445
 20
0.045500002161134
 11
-0.0610000028973445
 21
0.0395000018761493
 12
0.0610000028973445
 22
0.045500002161134
 13
0.0610000028973445
 23
0.0395000018761493
 999
##### LINE 32 ####
 0
SOLID
 62
8
 5
36
 8
8
 10
0.0640000030398369
 20
0.0425000020186417
 11
0.0580000027548522
 21
0.0425000020186417
 12
0.0640000030398369
 22
0.0275000013061799
 13
0.0580000027548522
 23
0.0275000013061799
 999
##### LINE 33 ####
 0
SOLID
 62
8
 5
36
 8
8
 10
0.0640000030398369
 20
-0.0275000013061799
 11
0.0580000027548522
 21
-0.0275000013061799
 12
0.0640000030398369
 22
-0.0425000020186417
 13
0.0580000027548522
 23
-0.0425000020186417
 999
##### LINE 34 ####
 0
SOLID
 62
8
 5
36
 8
8
 10
0.0610000028973445
 20
-0.045500002161134
 11
0.0610000028973445
 21
-0.0395000018761493
 12
-0.0610000028973445
 22
-0.045500002161134
 13
-0.0610000028973445
 23
-0.0395000018761493
999
##### Poly 48 ####
0
POLYLINE
5
36
70
1
8
23
6
CONTINUOUS
 62
23
66
1
10
0
20
0
0
VERTEX
8
23
6
CONTINUOUS
 10
-0.107000005082227
 20
-0.0485000023036264
0
VERTEX
8
23
6
CONTINUOUS
 10
-0.107000005082227
 20
0.0485000023036264
0
VERTEX
8
23
6
CONTINUOUS
 10
0.107000005082227
 20
0.0485000023036264
0
VERTEX
8
23
6
CONTINUOUS
 10
0.107000005082227
 20
-0.0485000023036264
0
SEQEND
 999
##### LINE 167 ####
 0
LINE
 5
36
 8
18
 6
CONTINUOUS
 62
18
 10
0.0760000036098063
 20
0.0235000011161901
 11
0.191000009072013
 21
0.0235000011161901
 999
##### LINE 168 ####
 0
LINE
 5
36
 8
18
 6
CONTINUOUS
 62
18
 10
0.0760000036098063
 20
-0.0235000011161901
 11
0.191000009072013
 21
-0.0235000011161901
 999
##### LINE 169 ####
 0
LINE
 5
36
 8
18
 6
CONTINUOUS
 62
18
 10
0.176000008359551
 20
0.0235000011161901
 11
0.176000008359551
 21
0.0735000034910627
 999
##### LINE 170 ####
 0
LINE
 5
36
 8
18
 6
CONTINUOUS
 62
18
 10
0.176000008359551
 20
-0.0235000011161901
 11
0.176000008359551
 21
-0.0735000034910627
 999
##### LINE 171 ####
 0
LINE
 5
36
 8
18
 6
CONTINUOUS
 62
18
 10
0.176000008359551
 20
0.0235000011161901
 11
0.171000008122064
 21
0.0335000015911646
 999
##### LINE 172 ####
 0
LINE
 5
36
 8
18
 6
CONTINUOUS
 62
18
 10
0.176000008359551
 20
0.0235000011161901
 11
0.181000008597039
 21
0.0335000015911646
 999
##### LINE 173 ####
 0
LINE
 5
36
 8
18
 6
CONTINUOUS
 62
18
 10
0.171000008122064
 20
0.0335000015911646
 11
0.181000008597039
 21
0.0335000015911646
 999
##### LINE 174 ####
 0
LINE
 5
36
 8
18
 6
CONTINUOUS
 62
18
 10
0.176000008359551
 20
-0.0235000011161901
 11
0.171000008122064
 21
-0.0335000015911646
 999
##### LINE 175 ####
 0
LINE
 5
36
 8
18
 6
CONTINUOUS
 62
18
 10
0.176000008359551
 20
-0.0235000011161901
 11
0.181000008597039
 21
-0.0335000015911646
 999
##### LINE 176 ####
 0
LINE
 5
36
 8
18
 6
CONTINUOUS
 62
18
 10
0.171000008122064
 20
-0.0335000015911646
 11
0.181000008597039
 21
-0.0335000015911646
 999
##### TEXT 177 ####
 0
TEXT
 5
36
 8
18
 62
18
 1
0.047in/1.194mm
 10
0.1960000093095
 20
0
 11
0.1960000093095
 21
0
 72
0
 73
2
 39
0.001
 40
0.025
 50
0
 999
##### LINE 178 ####
 0
LINE
 5
36
 8
18
 6
CONTINUOUS
 62
18
 10
-0.082000003894791
 20
0
 11
-0.082000003894791
 21
0.0885000042035244
 999
##### LINE 179 ####
 0
LINE
 5
36
 8
18
 6
CONTINUOUS
 62
18
 10
-0.0560000026598573
 20
0
 11
-0.0560000026598573
 21
0.0885000042035244
 999
##### LINE 180 ####
 0
LINE
 5
36
 8
18
 6
CONTINUOUS
 62
18
 10
-0.082000003894791
 20
0.0735000034910627
 11
-0.132000006269664
 21
0.0735000034910627
 999
##### LINE 181 ####
 0
LINE
 5
36
 8
18
 6
CONTINUOUS
 62
18
 10
-0.0560000026598573
 20
0.0735000034910627
 11
-0.00600000028498471
 21
0.0735000034910627
 999
##### LINE 182 ####
 0
LINE
 5
36
 8
18
 6
CONTINUOUS
 62
18
 10
-0.082000003894791
 20
0.0735000034910627
 11
-0.0920000043697655
 21
0.0785000037285499
 999
##### LINE 183 ####
 0
LINE
 5
36
 8
18
 6
CONTINUOUS
 62
18
 10
-0.082000003894791
 20
0.0735000034910627
 11
-0.0920000043697655
 21
0.0685000032535754
 999
##### LINE 184 ####
 0
LINE
 5
36
 8
18
 6
CONTINUOUS
 62
18
 10
-0.0920000043697655
 20
0.0785000037285499
 11
-0.0920000043697655
 21
0.0685000032535754
 999
##### LINE 185 ####
 0
LINE
 5
36
 8
18
 6
CONTINUOUS
 62
18
 10
-0.0560000026598573
 20
0.0735000034910627
 11
-0.0460000021848828
 21
0.0785000037285499
 999
##### LINE 186 ####
 0
LINE
 5
36
 8
18
 6
CONTINUOUS
 62
18
 10
-0.0560000026598573
 20
0.0735000034910627
 11
-0.0460000021848828
 21
0.0685000032535754
 999
##### LINE 187 ####
 0
LINE
 5
36
 8
18
 6
CONTINUOUS
 62
18
 10
-0.0460000021848828
 20
0.0785000037285499
 11
-0.0460000021848828
 21
0.0685000032535754
 999
##### TEXT 188 ####
 0
TEXT
 5
36
 8
18
 62
18
 1
0.026in/0.66mm
 10
-0.0690000032773241
 20
0.0935000044410117
 11
-0.0690000032773241
 21
0.0935000044410117
 72
1
 73
1
 39
0.001
 40
0.025
 50
0
 999
##### ATTRIBUTE 189 ####
 0
TEXT
 5
36
 8
2
 62
2
 1
RefDes
 10
0
 20
0
 11
0
 21
0
 72
1
 73
2
 39
0.003
 40
0.05
 41
0.5
 50
0
 999
##### TEXT 285 ####
 0
TEXT
 5
36
 8
1
 62
1
 1
*
 10
-0.0470000022323802
 20
0
 11
-0.0470000022323802
 21
0
 72
1
 73
2
 39
0.003
 40
0.05
 41
0.5
 50
0
 999
##### TEXT 286 ####
 0
TEXT
 5
36
 8
2
 62
2
 1
*
 10
-0.0970000046072528
 20
0
 11
-0.0970000046072528
 21
0
 72
1
 73
2
 39
0.003
 40
0.05
 41
0.5
 50
0
 999
##### LINE 287 ####
 0
LINE
 5
36
 8
1
 6
CONTINUOUS
 62
1
 10
-0.0570000027073547
 20
0.0192500009143259
 11
-0.0377500017930288
 21
0.0385000018286519
 999
##### LINE 288 ####
 0
LINE
 5
36
 8
1
 6
CONTINUOUS
 62
1
 10
-0.0570000027073547
 20
-0.0192500009143259
 11
-0.0377500017930288
 21
-0.0385000018286519
 999
##### LINE 289 ####
 0
SOLID
 62
2
 5
36
 8
2
 10
-0.062000002944842
 20
-0.0405000019236468
 11
-0.062000002944842
 21
-0.0465000022086315
 12
0.062000002944842
 22
-0.0405000019236468
 13
0.062000002944842
 23
-0.0465000022086315
 999
##### LINE 291 ####
 0
SOLID
 62
2
 5
36
 8
2
 10
0.062000002944842
 20
0.0405000019236468
 11
0.062000002944842
 21
0.0465000022086315
 12
-0.062000002944842
 22
0.0405000019236468
 13
-0.062000002944842
 23
0.0465000022086315
 999
##### LINE 294 ####
 0
LINE
 5
36
 8
1
 6
CONTINUOUS
 62
1
 10
-0.0570000027073547
 20
-0.0385000018286519
 11
0.0570000027073547
 21
-0.0385000018286519
 999
##### LINE 295 ####
 0
LINE
 5
36
 8
1
 6
CONTINUOUS
 62
1
 10
0.0570000027073547
 20
-0.0385000018286519
 11
0.0570000027073547
 21
0.0385000018286519
 999
##### LINE 296 ####
 0
LINE
 5
36
 8
1
 6
CONTINUOUS
 62
1
 10
0.0570000027073547
 20
0.0385000018286519
 11
-0.0570000027073547
 21
0.0385000018286519
 999
##### LINE 297 ####
 0
LINE
 5
36
 8
1
 6
CONTINUOUS
 62
1
 10
-0.0570000027073547
 20
0.0385000018286519
 11
-0.0570000027073547
 21
-0.0385000018286519
999
##### Poly 335 ####
0
POLYLINE
5
36
70
1
8
6
6
CONTINUOUS
 62
6
66
1
10
0
20
0
0
VERTEX
8
6
6
CONTINUOUS
 10
-0.082000003894791
 20
-0.0235000011161901
0
VERTEX
8
6
6
CONTINUOUS
 10
-0.0560000026598572
 20
-0.0235000011161901
0
VERTEX
8
6
6
CONTINUOUS
 10
-0.0560000026598573
 20
0.0235000011161901
0
VERTEX
8
6
6
CONTINUOUS
 10
-0.082000003894791
 20
0.0235000011161901
0
SEQEND
999
##### Poly 336 ####
0
POLYLINE
5
36
70
1
8
3
6
CONTINUOUS
 62
3
66
1
10
0
20
0
0
VERTEX
8
3
6
CONTINUOUS
 10
-0.082000003894791
 20
-0.0235000011161901
0
VERTEX
8
3
6
CONTINUOUS
 10
-0.0560000026598572
 20
-0.0235000011161901
0
VERTEX
8
3
6
CONTINUOUS
 10
-0.0560000026598573
 20
0.0235000011161901
0
VERTEX
8
3
6
CONTINUOUS
 10
-0.082000003894791
 20
0.0235000011161901
0
SEQEND
999
##### Poly 337 ####
0
POLYLINE
5
36
70
1
8
7
6
CONTINUOUS
 62
7
66
1
10
0
20
0
0
VERTEX
8
7
6
CONTINUOUS
 10
-0.082000003894791
 20
-0.0235000011161901
0
VERTEX
8
7
6
CONTINUOUS
 10
-0.0560000026598572
 20
-0.0235000011161901
0
VERTEX
8
7
6
CONTINUOUS
 10
-0.0560000026598573
 20
0.0235000011161901
0
VERTEX
8
7
6
CONTINUOUS
 10
-0.082000003894791
 20
0.0235000011161901
0
SEQEND
999
##### Poly 338 ####
0
POLYLINE
5
36
70
1
8
6
6
CONTINUOUS
 62
6
66
1
10
0
20
0
0
VERTEX
8
6
6
CONTINUOUS
 10
0.0560000026598573
 20
-0.0235000011161901
0
VERTEX
8
6
6
CONTINUOUS
 10
0.082000003894791
 20
-0.0235000011161901
0
VERTEX
8
6
6
CONTINUOUS
 10
0.082000003894791
 20
0.0235000011161901
0
VERTEX
8
6
6
CONTINUOUS
 10
0.0560000026598573
 20
0.0235000011161901
0
SEQEND
999
##### Poly 339 ####
0
POLYLINE
5
36
70
1
8
3
6
CONTINUOUS
 62
3
66
1
10
0
20
0
0
VERTEX
8
3
6
CONTINUOUS
 10
0.0560000026598573
 20
-0.0235000011161901
0
VERTEX
8
3
6
CONTINUOUS
 10
0.082000003894791
 20
-0.0235000011161901
0
VERTEX
8
3
6
CONTINUOUS
 10
0.082000003894791
 20
0.0235000011161901
0
VERTEX
8
3
6
CONTINUOUS
 10
0.0560000026598573
 20
0.0235000011161901
0
SEQEND
999
##### Poly 340 ####
0
POLYLINE
5
36
70
1
8
7
6
CONTINUOUS
 62
7
66
1
10
0
20
0
0
VERTEX
8
7
6
CONTINUOUS
 10
0.0560000026598573
 20
-0.0235000011161901
0
VERTEX
8
7
6
CONTINUOUS
 10
0.082000003894791
 20
-0.0235000011161901
0
VERTEX
8
7
6
CONTINUOUS
 10
0.082000003894791
 20
0.0235000011161901
0
VERTEX
8
7
6
CONTINUOUS
 10
0.0560000026598573
 20
0.0235000011161901
0
SEQEND
 0
ENDBLK
 0
ENDSEC
 0
SECTION
 2
ENTITIES
 0
INSERT
 8
0
 2
CR_SOD-123FL_SME-L
 10
0
 20
0
 30
0
 41
1
 42
1
 43
1
 0
ENDSEC
 0
EOF

