 0
SECTION
 2
HEADER
 0
ENDSEC
 0
SECTION
 2
TABLES
 0
ENDSEC
 0
SECTION
 2
BLOCKS
 0
BLOCK
 70
0
 2
CR_SOD-123FL_SME-M
 10
0
 20
0
 30
0
 999
##### LINE 3 ####
 0
LINE
 5
36
 8
1
 6
CONTINUOUS
 62
1
 10
-0.0570000027073547
 20
-0.0235000011161901
 11
-0.0570000027073547
 21
0.0235000011161901
 999
##### LINE 4 ####
 0
LINE
 5
36
 8
1
 6
CONTINUOUS
 62
1
 10
-0.0570000027073547
 20
0.0235000011161901
 11
-0.0760000036098063
 21
0.0235000011161901
 999
##### LINE 5 ####
 0
LINE
 5
36
 8
1
 6
CONTINUOUS
 62
1
 10
-0.0760000036098063
 20
0.0235000011161901
 11
-0.0760000036098063
 21
-0.0235000011161901
 999
##### LINE 6 ####
 0
LINE
 5
36
 8
1
 6
CONTINUOUS
 62
1
 10
-0.0760000036098063
 20
-0.0235000011161901
 11
-0.0570000027073547
 21
-0.0235000011161901
 999
##### LINE 8 ####
 0
LINE
 5
36
 8
1
 6
CONTINUOUS
 62
1
 10
0.0570000027073547
 20
0.0235000011161902
 11
0.0570000027073547
 21
-0.02350000111619
 999
##### LINE 9 ####
 0
LINE
 5
36
 8
1
 6
CONTINUOUS
 62
1
 10
0.0570000027073547
 20
-0.02350000111619
 11
0.0760000036098063
 21
-0.02350000111619
 999
##### LINE 10 ####
 0
LINE
 5
36
 8
1
 6
CONTINUOUS
 62
1
 10
0.0760000036098063
 20
-0.02350000111619
 11
0.0760000036098063
 21
0.0235000011161902
 999
##### LINE 11 ####
 0
LINE
 5
36
 8
1
 6
CONTINUOUS
 62
1
 10
0.0760000036098063
 20
0.0235000011161902
 11
0.0570000027073547
 21
0.0235000011161902
 999
##### LINE 17 ####
 0
SOLID
 62
8
 5
36
 8
8
 10
-0.121000005747192
 20
-0.045500002161134
 11
-0.115000005462207
 21
-0.045500002161134
 12
-0.121000005747192
 22
0.045500002161134
 13
-0.115000005462207
 23
0.045500002161134
 999
##### LINE 18 ####
 0
SOLID
 62
8
 5
36
 8
8
 10
-0.118000005604699
 20
0.0485000023036264
 11
-0.118000005604699
 21
0.0425000020186417
 12
-0.0770000036573038
 22
0.0485000023036264
 13
-0.0770000036573038
 23
0.0425000020186417
 999
##### LINE 19 ####
 0
SOLID
 62
8
 5
36
 8
8
 10
0.0770000036573038
 20
0.0485000023036264
 11
0.0770000036573038
 21
0.0425000020186417
 12
0.118000005604699
 22
0.0485000023036264
 13
0.118000005604699
 23
0.0425000020186417
 999
##### LINE 20 ####
 0
SOLID
 62
8
 5
36
 8
8
 10
0.121000005747192
 20
0.045500002161134
 11
0.115000005462207
 21
0.045500002161134
 12
0.121000005747192
 22
-0.045500002161134
 13
0.115000005462207
 23
-0.045500002161134
 999
##### LINE 21 ####
 0
SOLID
 62
8
 5
36
 8
8
 10
0.118000005604699
 20
-0.0485000023036264
 11
0.118000005604699
 21
-0.0425000020186417
 12
0.0770000036573038
 22
-0.0485000023036264
 13
0.0770000036573038
 23
-0.0425000020186417
 999
##### LINE 22 ####
 0
SOLID
 62
8
 5
36
 8
8
 10
-0.0770000036573038
 20
-0.0485000023036264
 11
-0.0770000036573038
 21
-0.0425000020186417
 12
-0.118000005604699
 22
-0.0485000023036264
 13
-0.118000005604699
 23
-0.0425000020186417
999
##### Poly 23 ####
0
POLYLINE
5
36
70
1
8
8
6
CONTINUOUS
 62
8
66
1
10
0
20
0
0
VERTEX
8
8
6
CONTINUOUS
 10
-0.118000005604699
 20
-0.045500002161134
0
VERTEX
8
8
6
CONTINUOUS
 10
-0.118000005604699
 20
0.045500002161134
0
VERTEX
8
8
6
CONTINUOUS
 10
-0.0770000036573038
 20
0.045500002161134
0
VERTEX
8
8
6
CONTINUOUS
 10
-0.0770000036573038
 20
0.0585000027786009
0
VERTEX
8
8
6
CONTINUOUS
 10
0.0770000036573038
 20
0.0585000027786009
0
VERTEX
8
8
6
CONTINUOUS
 10
0.0770000036573038
 20
0.045500002161134
0
VERTEX
8
8
6
CONTINUOUS
 10
0.118000005604699
 20
0.045500002161134
0
VERTEX
8
8
6
CONTINUOUS
 10
0.118000005604699
 20
-0.045500002161134
0
VERTEX
8
8
6
CONTINUOUS
 10
0.0770000036573038
 20
-0.045500002161134
0
VERTEX
8
8
6
CONTINUOUS
 10
0.0770000036573038
 20
-0.0585000027786009
0
VERTEX
8
8
6
CONTINUOUS
 10
-0.0770000036573038
 20
-0.0585000027786009
0
VERTEX
8
8
6
CONTINUOUS
 10
-0.0770000036573038
 20
-0.045500002161134
0
SEQEND
 999
##### LINE 29 ####
 0
SOLID
 62
8
 5
36
 8
8
 10
-0.0800000037997961
 20
-0.0585000027786009
 11
-0.0740000035148114
 21
-0.0585000027786009
 12
-0.0800000037997961
 22
-0.045500002161134
 13
-0.0740000035148114
 23
-0.045500002161134
 999
##### LINE 30 ####
 0
SOLID
 62
8
 5
36
 8
8
 10
-0.0800000037997961
 20
0.045500002161134
 11
-0.0740000035148114
 21
0.045500002161134
 12
-0.0800000037997961
 22
0.0585000027786009
 13
-0.0740000035148114
 23
0.0585000027786009
 999
##### LINE 31 ####
 0
SOLID
 62
8
 5
36
 8
8
 10
-0.0770000036573038
 20
0.0615000029210933
 11
-0.0770000036573038
 21
0.0555000026361085
 12
0.0770000036573038
 22
0.0615000029210933
 13
0.0770000036573038
 23
0.0555000026361085
 999
##### LINE 32 ####
 0
SOLID
 62
8
 5
36
 8
8
 10
0.0800000037997961
 20
0.0585000027786009
 11
0.0740000035148114
 21
0.0585000027786009
 12
0.0800000037997961
 22
0.045500002161134
 13
0.0740000035148114
 23
0.045500002161134
 999
##### LINE 33 ####
 0
SOLID
 62
8
 5
36
 8
8
 10
0.0800000037997961
 20
-0.045500002161134
 11
0.0740000035148114
 21
-0.045500002161134
 12
0.0800000037997961
 22
-0.0585000027786009
 13
0.0740000035148114
 23
-0.0585000027786009
 999
##### LINE 34 ####
 0
SOLID
 62
8
 5
36
 8
8
 10
0.0770000036573038
 20
-0.0615000029210933
 11
0.0770000036573038
 21
-0.0555000026361085
 12
-0.0770000036573038
 22
-0.0615000029210933
 13
-0.0770000036573038
 23
-0.0555000026361085
999
##### Poly 48 ####
0
POLYLINE
5
36
70
1
8
23
6
CONTINUOUS
 62
23
66
1
10
0
20
0
0
VERTEX
8
23
6
CONTINUOUS
 10
-0.123000005842187
 20
-0.0485000023036264
0
VERTEX
8
23
6
CONTINUOUS
 10
-0.123000005842187
 20
0.0485000023036264
0
VERTEX
8
23
6
CONTINUOUS
 10
0.123000005842187
 20
0.0485000023036264
0
VERTEX
8
23
6
CONTINUOUS
 10
0.123000005842187
 20
-0.0485000023036264
0
SEQEND
 999
##### LINE 167 ####
 0
LINE
 5
36
 8
18
 6
CONTINUOUS
 62
18
 10
0.0760000036098063
 20
0.025500001211185
 11
0.191000009072013
 21
0.025500001211185
 999
##### LINE 168 ####
 0
LINE
 5
36
 8
18
 6
CONTINUOUS
 62
18
 10
0.0760000036098063
 20
-0.025500001211185
 11
0.191000009072013
 21
-0.025500001211185
 999
##### LINE 169 ####
 0
LINE
 5
36
 8
18
 6
CONTINUOUS
 62
18
 10
0.176000008359551
 20
0.025500001211185
 11
0.176000008359551
 21
0.0755000035860576
 999
##### LINE 170 ####
 0
LINE
 5
36
 8
18
 6
CONTINUOUS
 62
18
 10
0.176000008359551
 20
-0.025500001211185
 11
0.176000008359551
 21
-0.0755000035860576
 999
##### LINE 171 ####
 0
LINE
 5
36
 8
18
 6
CONTINUOUS
 62
18
 10
0.176000008359551
 20
0.025500001211185
 11
0.171000008122064
 21
0.0355000016861595
 999
##### LINE 172 ####
 0
LINE
 5
36
 8
18
 6
CONTINUOUS
 62
18
 10
0.176000008359551
 20
0.025500001211185
 11
0.181000008597039
 21
0.0355000016861595
 999
##### LINE 173 ####
 0
LINE
 5
36
 8
18
 6
CONTINUOUS
 62
18
 10
0.171000008122064
 20
0.0355000016861595
 11
0.181000008597039
 21
0.0355000016861595
 999
##### LINE 174 ####
 0
LINE
 5
36
 8
18
 6
CONTINUOUS
 62
18
 10
0.176000008359551
 20
-0.025500001211185
 11
0.171000008122064
 21
-0.0355000016861595
 999
##### LINE 175 ####
 0
LINE
 5
36
 8
18
 6
CONTINUOUS
 62
18
 10
0.176000008359551
 20
-0.025500001211185
 11
0.181000008597039
 21
-0.0355000016861595
 999
##### LINE 176 ####
 0
LINE
 5
36
 8
18
 6
CONTINUOUS
 62
18
 10
0.171000008122064
 20
-0.0355000016861595
 11
0.181000008597039
 21
-0.0355000016861595
 999
##### TEXT 177 ####
 0
TEXT
 5
36
 8
18
 62
18
 1
0.051in/1.295mm
 10
0.1960000093095
 20
0
 11
0.1960000093095
 21
0
 72
0
 73
2
 39
0.001
 40
0.025
 50
0
 999
##### LINE 178 ####
 0
LINE
 5
36
 8
18
 6
CONTINUOUS
 62
18
 10
-0.0980000046547502
 20
0
 11
-0.0980000046547502
 21
0.0885000042035244
 999
##### LINE 179 ####
 0
LINE
 5
36
 8
18
 6
CONTINUOUS
 62
18
 10
-0.0480000022798777
 20
0
 11
-0.0480000022798777
 21
0.0885000042035244
 999
##### LINE 180 ####
 0
LINE
 5
36
 8
18
 6
CONTINUOUS
 62
18
 10
-0.0980000046547502
 20
0.0735000034910627
 11
-0.148000007029623
 21
0.0735000034910627
 999
##### LINE 181 ####
 0
LINE
 5
36
 8
18
 6
CONTINUOUS
 62
18
 10
-0.0480000022798777
 20
0.0735000034910627
 11
0.0020000000949949
 21
0.0735000034910627
 999
##### LINE 182 ####
 0
LINE
 5
36
 8
18
 6
CONTINUOUS
 62
18
 10
-0.0980000046547502
 20
0.0735000034910627
 11
-0.108000005129725
 21
0.0785000037285499
 999
##### LINE 183 ####
 0
LINE
 5
36
 8
18
 6
CONTINUOUS
 62
18
 10
-0.0980000046547502
 20
0.0735000034910627
 11
-0.108000005129725
 21
0.0685000032535754
 999
##### LINE 184 ####
 0
LINE
 5
36
 8
18
 6
CONTINUOUS
 62
18
 10
-0.108000005129725
 20
0.0785000037285499
 11
-0.108000005129725
 21
0.0685000032535754
 999
##### LINE 185 ####
 0
LINE
 5
36
 8
18
 6
CONTINUOUS
 62
18
 10
-0.0480000022798777
 20
0.0735000034910627
 11
-0.0380000018049032
 21
0.0785000037285499
 999
##### LINE 186 ####
 0
LINE
 5
36
 8
18
 6
CONTINUOUS
 62
18
 10
-0.0480000022798777
 20
0.0735000034910627
 11
-0.0380000018049032
 21
0.0685000032535754
 999
##### LINE 187 ####
 0
LINE
 5
36
 8
18
 6
CONTINUOUS
 62
18
 10
-0.0380000018049032
 20
0.0785000037285499
 11
-0.0380000018049032
 21
0.0685000032535754
 999
##### TEXT 188 ####
 0
TEXT
 5
36
 8
18
 62
18
 1
0.05in/1.27mm
 10
-0.0730000034673139
 20
0.0935000044410117
 11
-0.0730000034673139
 21
0.0935000044410117
 72
1
 73
1
 39
0.001
 40
0.025
 50
0
 999
##### ATTRIBUTE 189 ####
 0
TEXT
 5
36
 8
2
 62
2
 1
RefDes
 10
0
 20
0
 11
0
 21
0
 72
1
 73
2
 39
0.003
 40
0.05
 41
0.5
 50
0
 999
##### TEXT 285 ####
 0
TEXT
 5
36
 8
1
 62
1
 1
*
 10
-0.0470000022323802
 20
0
 11
-0.0470000022323802
 21
0
 72
1
 73
2
 39
0.003
 40
0.05
 41
0.5
 50
0
 999
##### TEXT 286 ####
 0
TEXT
 5
36
 8
2
 62
2
 1
*
 10
-0.113000005367212
 20
0
 11
-0.113000005367212
 21
0
 72
1
 73
2
 39
0.003
 40
0.05
 41
0.5
 50
0
 999
##### LINE 287 ####
 0
LINE
 5
36
 8
1
 6
CONTINUOUS
 62
1
 10
-0.0570000027073547
 20
0.0192500009143259
 11
-0.0377500017930288
 21
0.0385000018286519
 999
##### LINE 288 ####
 0
LINE
 5
36
 8
1
 6
CONTINUOUS
 62
1
 10
-0.0570000027073547
 20
-0.0192500009143259
 11
-0.0377500017930288
 21
-0.0385000018286519
 999
##### LINE 289 ####
 0
SOLID
 62
2
 5
36
 8
2
 10
-0.062000002944842
 20
-0.0405000019236468
 11
-0.062000002944842
 21
-0.0465000022086315
 12
0.062000002944842
 22
-0.0405000019236468
 13
0.062000002944842
 23
-0.0465000022086315
 999
##### LINE 291 ####
 0
SOLID
 62
2
 5
36
 8
2
 10
0.062000002944842
 20
0.0405000019236468
 11
0.062000002944842
 21
0.0465000022086315
 12
-0.062000002944842
 22
0.0405000019236468
 13
-0.062000002944842
 23
0.0465000022086315
 999
##### LINE 294 ####
 0
LINE
 5
36
 8
1
 6
CONTINUOUS
 62
1
 10
-0.0570000027073547
 20
-0.0385000018286519
 11
0.0570000027073547
 21
-0.0385000018286519
 999
##### LINE 295 ####
 0
LINE
 5
36
 8
1
 6
CONTINUOUS
 62
1
 10
0.0570000027073547
 20
-0.0385000018286519
 11
0.0570000027073547
 21
0.0385000018286519
 999
##### LINE 296 ####
 0
LINE
 5
36
 8
1
 6
CONTINUOUS
 62
1
 10
0.0570000027073547
 20
0.0385000018286519
 11
-0.0570000027073547
 21
0.0385000018286519
 999
##### LINE 297 ####
 0
LINE
 5
36
 8
1
 6
CONTINUOUS
 62
1
 10
-0.0570000027073547
 20
0.0385000018286519
 11
-0.0570000027073547
 21
-0.0385000018286519
999
##### Poly 335 ####
0
POLYLINE
5
36
70
1
8
6
6
CONTINUOUS
 62
6
66
1
10
0
20
0
0
VERTEX
8
6
6
CONTINUOUS
 10
-0.0980000046547502
 20
-0.025500001211185
0
VERTEX
8
6
6
CONTINUOUS
 10
-0.0480000022798776
 20
-0.025500001211185
0
VERTEX
8
6
6
CONTINUOUS
 10
-0.0480000022798777
 20
0.025500001211185
0
VERTEX
8
6
6
CONTINUOUS
 10
-0.0980000046547502
 20
0.025500001211185
0
SEQEND
999
##### Poly 336 ####
0
POLYLINE
5
36
70
1
8
3
6
CONTINUOUS
 62
3
66
1
10
0
20
0
0
VERTEX
8
3
6
CONTINUOUS
 10
-0.0980000046547502
 20
-0.025500001211185
0
VERTEX
8
3
6
CONTINUOUS
 10
-0.0480000022798776
 20
-0.025500001211185
0
VERTEX
8
3
6
CONTINUOUS
 10
-0.0480000022798777
 20
0.025500001211185
0
VERTEX
8
3
6
CONTINUOUS
 10
-0.0980000046547502
 20
0.025500001211185
0
SEQEND
999
##### Poly 337 ####
0
POLYLINE
5
36
70
1
8
7
6
CONTINUOUS
 62
7
66
1
10
0
20
0
0
VERTEX
8
7
6
CONTINUOUS
 10
-0.0980000046547502
 20
-0.025500001211185
0
VERTEX
8
7
6
CONTINUOUS
 10
-0.0480000022798776
 20
-0.025500001211185
0
VERTEX
8
7
6
CONTINUOUS
 10
-0.0480000022798777
 20
0.025500001211185
0
VERTEX
8
7
6
CONTINUOUS
 10
-0.0980000046547502
 20
0.025500001211185
0
SEQEND
999
##### Poly 338 ####
0
POLYLINE
5
36
70
1
8
6
6
CONTINUOUS
 62
6
66
1
10
0
20
0
0
VERTEX
8
6
6
CONTINUOUS
 10
0.0480000022798777
 20
-0.025500001211185
0
VERTEX
8
6
6
CONTINUOUS
 10
0.0980000046547503
 20
-0.025500001211185
0
VERTEX
8
6
6
CONTINUOUS
 10
0.0980000046547502
 20
0.025500001211185
0
VERTEX
8
6
6
CONTINUOUS
 10
0.0480000022798776
 20
0.025500001211185
0
SEQEND
999
##### Poly 339 ####
0
POLYLINE
5
36
70
1
8
3
6
CONTINUOUS
 62
3
66
1
10
0
20
0
0
VERTEX
8
3
6
CONTINUOUS
 10
0.0480000022798777
 20
-0.025500001211185
0
VERTEX
8
3
6
CONTINUOUS
 10
0.0980000046547503
 20
-0.025500001211185
0
VERTEX
8
3
6
CONTINUOUS
 10
0.0980000046547502
 20
0.025500001211185
0
VERTEX
8
3
6
CONTINUOUS
 10
0.0480000022798776
 20
0.025500001211185
0
SEQEND
999
##### Poly 340 ####
0
POLYLINE
5
36
70
1
8
7
6
CONTINUOUS
 62
7
66
1
10
0
20
0
0
VERTEX
8
7
6
CONTINUOUS
 10
0.0480000022798777
 20
-0.025500001211185
0
VERTEX
8
7
6
CONTINUOUS
 10
0.0980000046547503
 20
-0.025500001211185
0
VERTEX
8
7
6
CONTINUOUS
 10
0.0980000046547502
 20
0.025500001211185
0
VERTEX
8
7
6
CONTINUOUS
 10
0.0480000022798776
 20
0.025500001211185
0
SEQEND
 0
ENDBLK
 0
ENDSEC
 0
SECTION
 2
ENTITIES
 0
INSERT
 8
0
 2
CR_SOD-123FL_SME-M
 10
0
 20
0
 30
0
 41
1
 42
1
 43
1
 0
ENDSEC
 0
EOF

